<?xml version="1.0" standalone="no"?>
<!DOCTYPE svg PUBLIC "-//W3C//DTD SVG 20010904//EN"
 "http://www.w3.org/TR/2001/REC-SVG-20010904/DTD/svg10.dtd">
<svg version="1.0" xmlns="http://www.w3.org/2000/svg"
 width="260.000000pt" height="260.000000pt" viewBox="0 0 260.000000 260.000000"
 preserveAspectRatio="xMidYMid meet">
<metadata>
Created by potrace 1.11, written by Peter Selinger 2001-2013
</metadata>
<g transform="translate(0.000000,260.000000) scale(0.100000,-0.100000)"
fill="#000000" stroke="none">
<path d="M1145 2590 c-294 -44 -540 -165 -741 -365 -120 -119 -182 -205 -254
-350 -98 -198 -142 -397 -134 -615 2 -63 6 -128 9 -145 50 -275 141 -474 305
-664 53 -62 62 -77 58 -105 -3 -31 -3 -32 40 -34 32 -1 54 -10 85 -35 158
-127 350 -213 569 -256 120 -24 364 -22 483 4 194 41 369 119 517 228 52 39
86 57 106 57 32 0 61 24 42 35 -16 10 -12 17 31 65 101 112 197 258 243 370
10 25 25 59 32 75 7 17 23 68 36 115 21 78 23 105 23 330 0 237 -1 248 -27
343 -43 154 -107 282 -224 451 -29 42 -158 173 -214 217 -177 141 -393 237
-612 272 -93 15 -293 19 -373 7z"/>
</g>
</svg>
